<svg width="9" height="12" viewBox="0 0 9 12" xmlns="http://www.w3.org/2000/svg">
<path d="M4.5 12C2.0145 12 0 10.5 0 7.875C0 6.75 0.375 4.875 1.875 3.375C1.6875 4.5 2.8125 4.875 2.8125 4.875C2.25 3 3.75 0.375 6 0C5.73225 1.5 5.625 3 7.5 4.5C8.4375 5.25 9 6.54675 9 7.875C9 10.5 6.9855 12 4.5 12ZM4.5 11.25C5.74275 11.25 6.75 10.5 6.75 9.1875C6.75 8.625 6.5625 7.6875 5.8125 6.9375C5.90625 7.5 5.25 7.875 5.25 7.875C5.53125 6.9375 4.875 5.4375 3.75 5.25C3.88425 6 3.9375 6.75 3 7.5C2.53125 7.875 2.25 8.523 2.25 9.1875C2.25 10.5 3.25725 11.25 4.5 11.25Z"/>
</svg>
